<?xml version="1.0" encoding="UTF-8"?><svg id="Layer_1" xmlns="http://www.w3.org/2000/svg" xmlns:xlink="http://www.w3.org/1999/xlink" viewBox="0 0 131.81 29.15"><defs><style>.cls-1{fill:url(#linear-gradient);}.cls-1,.cls-2{stroke-width:0px;}.cls-2{fill:#f0e8d5;}</style><linearGradient id="linear-gradient" x1="92.76" y1="3.69" x2="133.1" y2="34.33" gradientUnits="userSpaceOnUse"><stop offset="0" stop-color="#00d26d"/><stop offset="1" stop-color="#03bbe6"/></linearGradient></defs><path class="cls-2" d="M19.95,17.85v10.47h-5.3v-9.65c0-2.96-1.36-4.32-3.71-4.32-2.55,0-4.39,1.56-4.39,4.93v9.04H1.25V10.03h5.07v2.14c1.43-1.56,3.57-2.41,6.05-2.41,4.32,0,7.58,2.52,7.58,8.09Z"/><path class="cls-2" d="M24.1,4.52c0-1.67,1.33-2.96,3.3-2.96s3.3,1.22,3.3,2.86c0,1.77-1.33,3.06-3.3,3.06s-3.3-1.29-3.3-2.96ZM24.74,10.03h5.3v18.29h-5.3V10.03Z"/><path class="cls-2" d="M33.62,19.17c0-5.51,4.25-9.42,10.2-9.42,3.84,0,6.87,1.67,8.19,4.66l-4.11,2.21c-.99-1.73-2.45-2.52-4.11-2.52-2.69,0-4.79,1.87-4.79,5.07s2.11,5.07,4.79,5.07c1.67,0,3.13-.75,4.11-2.52l4.11,2.24c-1.33,2.92-4.35,4.62-8.19,4.62-5.95,0-10.2-3.91-10.2-9.42Z"/><path class="cls-2" d="M62.79,21.14l-2.55,2.52v4.66h-5.3V3.09h5.3v14.28l7.75-7.34h6.32l-7.62,7.75,8.3,10.54h-6.43l-5.78-7.17Z"/><path class="cls-2" d="M86.37,28.59h-6.13v-13.43h-2.75v-4.94h2.75v-.31c0-4.38,2.82-7.1,7.37-7.1,1.71,0,3.25.38,4.21,1.05l.31.21-1.7,4.69-.52-.37c-.49-.35-1.13-.54-1.8-.54-1.29,0-1.86.65-1.86,2.09v.27h4.57v4.94h-4.43v13.43ZM81.21,27.62h4.19v-13.43h4.43v-3h-4.57v-1.25c0-1.98,1.01-3.07,2.84-3.07.65,0,1.28.14,1.83.4l1.02-2.82c-.81-.43-2.03-.68-3.34-.68-4,0-6.39,2.29-6.39,6.13v1.28h-2.75v3h2.75v13.43Z"/><path class="cls-2" d="M93.49,28.59c-1.68,0-3.05-1.37-3.05-3.05s1.37-3.05,3.05-3.05,3.05,1.37,3.05,3.05-1.37,3.05-3.05,3.05ZM93.49,23.48c-1.13,0-2.05.92-2.05,2.05s.92,2.05,2.05,2.05,2.05-.92,2.05-2.05-.92-2.05-2.05-2.05Z"/><path class="cls-1" d="M100.95,4.52c0-1.67,1.33-2.96,3.3-2.96s3.3,1.22,3.3,2.86c0,1.77-1.33,3.06-3.3,3.06s-3.3-1.29-3.3-2.96ZM101.6,10.03h5.3v18.29h-5.3V10.03ZM120.54,9.75c-5.81,0-10.06,3.91-10.06,9.42s4.25,9.42,10.06,9.42,10.03-3.91,10.03-9.42-4.22-9.42-10.03-9.42ZM120.54,24.24c-2.65,0-4.69-1.9-4.69-5.07s2.04-5.07,4.69-5.07,4.66,1.9,4.66,5.07-2.01,5.07-4.66,5.07Z"/></svg>