<svg width="277" height="88" viewBox="0 0 277 88" fill="none" xmlns="http://www.w3.org/2000/svg">
<path d="M28.728 30.688C31.8 30.688 34.536 31.312 36.936 32.56C39.384 33.76 41.304 35.632 42.696 38.176C44.088 40.672 44.784 43.888 44.784 47.824V70H33.552V49.552C33.552 46.432 32.856 44.128 31.464 42.64C30.12 41.152 28.2 40.408 25.704 40.408C23.928 40.408 22.32 40.792 20.88 41.56C19.488 42.28 18.384 43.408 17.568 44.944C16.8 46.48 16.416 48.448 16.416 50.848V70H5.184V31.264H15.912V41.992L13.896 38.752C15.288 36.16 17.28 34.168 19.872 32.776C22.464 31.384 25.416 30.688 28.728 30.688ZM54.9653 70V31.264H66.1973V70H54.9653ZM60.5813 25.864C58.5173 25.864 56.8373 25.264 55.5413 24.064C54.2453 22.864 53.5973 21.376 53.5973 19.6C53.5973 17.824 54.2453 16.336 55.5413 15.136C56.8373 13.936 58.5173 13.336 60.5813 13.336C62.6453 13.336 64.3253 13.912 65.6213 15.064C66.9173 16.168 67.5653 17.608 67.5653 19.384C67.5653 21.256 66.9173 22.816 65.6213 24.064C64.3733 25.264 62.6933 25.864 60.5813 25.864ZM95.3415 70.576C91.1655 70.576 87.4455 69.736 84.1815 68.056C80.9175 66.328 78.3495 63.952 76.4775 60.928C74.6535 57.904 73.7415 54.472 73.7415 50.632C73.7415 46.744 74.6535 43.312 76.4775 40.336C78.3495 37.312 80.9175 34.96 84.1815 33.28C87.4455 31.552 91.1655 30.688 95.3415 30.688C99.4215 30.688 102.974 31.552 105.998 33.28C109.022 34.96 111.254 37.384 112.694 40.552L103.982 45.232C102.974 43.408 101.702 42.064 100.166 41.2C98.6775 40.336 97.0455 39.904 95.2695 39.904C93.3495 39.904 91.6215 40.336 90.0855 41.2C88.5495 42.064 87.3255 43.288 86.4135 44.872C85.5495 46.456 85.1175 48.376 85.1175 50.632C85.1175 52.888 85.5495 54.808 86.4135 56.392C87.3255 57.976 88.5495 59.2 90.0855 60.064C91.6215 60.928 93.3495 61.36 95.2695 61.36C97.0455 61.36 98.6775 60.952 100.166 60.136C101.702 59.272 102.974 57.904 103.982 56.032L112.694 60.784C111.254 63.904 109.022 66.328 105.998 68.056C102.974 69.736 99.4215 70.576 95.3415 70.576ZM128.238 62.08L128.526 48.4L146.598 31.264H159.99L142.638 48.904L136.806 53.656L128.238 62.08ZM118.95 70V16.576H130.182V70H118.95ZM147.822 70L134.718 53.728L141.774 45.016L161.43 70H147.822Z" fill="#F0E8D5"/>
<mask id="path-2-outside-1_695_15" maskUnits="userSpaceOnUse" x="160" y="14" width="48" height="59" fill="black">
<rect fill="white" x="160" y="14" width="48" height="59"/>
<path d="M168.552 70V30.4C168.552 26.032 169.848 22.552 172.44 19.96C175.032 17.32 178.728 16 183.528 16C185.16 16 186.72 16.168 188.208 16.504C189.744 16.84 191.04 17.368 192.096 18.088L189.144 26.224C188.52 25.792 187.824 25.456 187.056 25.216C186.288 24.976 185.472 24.856 184.608 24.856C182.976 24.856 181.704 25.336 180.792 26.296C179.928 27.208 179.496 28.6 179.496 30.472V34.072L179.784 38.896V70H168.552ZM162.576 40.768V32.128H189.432V40.768H162.576ZM198.573 70.576C196.653 70.576 194.997 69.928 193.605 68.632C192.261 67.288 191.589 65.584 191.589 63.52C191.589 61.456 192.261 59.8 193.605 58.552C194.997 57.256 196.653 56.608 198.573 56.608C200.541 56.608 202.197 57.256 203.541 58.552C204.885 59.8 205.557 61.456 205.557 63.52C205.557 65.584 204.885 67.288 203.541 68.632C202.197 69.928 200.541 70.576 198.573 70.576Z"/>
</mask>
<path d="M168.552 70H166.552V72H168.552V70ZM172.44 19.96L173.854 21.3742L173.861 21.3677L173.867 21.3612L172.44 19.96ZM188.208 16.504L187.767 18.4549L187.781 18.4578L188.208 16.504ZM192.096 18.088L193.976 18.7701L194.506 17.3104L193.223 16.4355L192.096 18.088ZM189.144 26.224L188.006 27.8684L190.139 29.3454L191.024 26.9061L189.144 26.224ZM180.792 26.296L179.342 24.9185L179.34 24.9205L180.792 26.296ZM179.496 34.072H177.496V34.1316L177.5 34.1912L179.496 34.072ZM179.784 38.896H181.784V38.8363L181.78 38.7768L179.784 38.896ZM179.784 70V72H181.784V70H179.784ZM162.576 40.768H160.576V42.768H162.576V40.768ZM162.576 32.128V30.128H160.576V32.128H162.576ZM189.432 32.128H191.432V30.128H189.432V32.128ZM189.432 40.768V42.768H191.432V40.768H189.432ZM170.552 70V30.4H166.552V70H170.552ZM170.552 30.4C170.552 26.4534 171.708 23.5205 173.854 21.3742L171.026 18.5458C167.988 21.5835 166.552 25.6106 166.552 30.4H170.552ZM173.867 21.3612C175.98 19.2089 179.098 18 183.528 18V14C178.358 14 174.084 15.4311 171.013 18.5588L173.867 21.3612ZM183.528 18C185.022 18 186.434 18.1537 187.767 18.4549L188.649 14.5531C187.006 14.1823 185.298 14 183.528 14V18ZM187.781 18.4578C189.122 18.7513 190.168 19.1938 190.969 19.7405L193.223 16.4355C191.912 15.5422 190.366 14.9287 188.635 14.5502L187.781 18.4578ZM190.216 17.4058L187.264 25.5418L191.024 26.9061L193.976 18.7701L190.216 17.4058ZM190.282 24.5796C189.482 24.0258 188.602 23.6037 187.653 23.307L186.459 27.125C187.046 27.3083 187.558 27.5582 188.006 27.8684L190.282 24.5796ZM187.653 23.307C186.678 23.0024 185.659 22.856 184.608 22.856V26.856C185.285 26.856 185.898 26.9496 186.459 27.125L187.653 23.307ZM184.608 22.856C182.564 22.856 180.716 23.472 179.342 24.9185L182.242 27.6735C182.692 27.2 183.388 26.856 184.608 26.856V22.856ZM179.34 24.9205C177.985 26.3509 177.496 28.3348 177.496 30.472H181.496C181.496 28.8652 181.871 28.0651 182.244 27.6715L179.34 24.9205ZM177.496 30.472V34.072H181.496V30.472H177.496ZM177.5 34.1912L177.788 39.0152L181.78 38.7768L181.492 33.9528L177.5 34.1912ZM177.784 38.896V70H181.784V38.896H177.784ZM179.784 68H168.552V72H179.784V68ZM164.576 40.768V32.128H160.576V40.768H164.576ZM162.576 34.128H189.432V30.128H162.576V34.128ZM187.432 32.128V40.768H191.432V32.128H187.432ZM189.432 38.768H162.576V42.768H189.432V38.768ZM193.605 68.632L192.19 70.0462L192.216 70.0715L192.242 70.0958L193.605 68.632ZM193.605 58.552L194.966 60.0176L194.967 60.0158L193.605 58.552ZM203.541 58.552L202.152 59.9917L202.166 60.0048L202.18 60.0176L203.541 58.552ZM203.541 68.632L204.929 70.0717L204.942 70.0591L204.955 70.0462L203.541 68.632ZM198.573 68.576C197.153 68.576 195.985 68.116 194.967 67.1682L192.242 70.0958C194.008 71.74 196.152 72.576 198.573 72.576V68.576ZM195.019 67.2178C194.084 66.283 193.589 65.1038 193.589 63.52H189.589C189.589 66.0642 190.437 68.293 192.19 70.0462L195.019 67.2178ZM193.589 63.52C193.589 61.9351 194.082 60.8378 194.966 60.0176L192.244 57.0864C190.439 58.7622 189.589 60.9769 189.589 63.52H193.589ZM194.967 60.0158C195.985 59.068 197.153 58.608 198.573 58.608V54.608C196.152 54.608 194.008 55.444 192.242 57.0882L194.967 60.0158ZM198.573 58.608C200.054 58.608 201.203 59.0761 202.152 59.9917L204.929 57.1123C203.19 55.4359 201.028 54.608 198.573 54.608V58.608ZM202.18 60.0176C203.063 60.8378 203.557 61.9351 203.557 63.52H207.557C207.557 60.9769 206.706 58.7622 204.902 57.0864L202.18 60.0176ZM203.557 63.52C203.557 65.1038 203.061 66.283 202.126 67.2178L204.955 70.0462C206.708 68.293 207.557 66.0642 207.557 63.52H203.557ZM202.152 67.1923C201.203 68.1079 200.054 68.576 198.573 68.576V72.576C201.028 72.576 203.19 71.7481 204.929 70.0717L202.152 67.1923Z" fill="#F0E8D5" mask="url(#path-2-outside-1_695_15)"/>
<path d="M213.184 70V31.264H224.416V70H213.184ZM218.8 25.864C216.736 25.864 215.056 25.264 213.76 24.064C212.464 22.864 211.816 21.376 211.816 19.6C211.816 17.824 212.464 16.336 213.76 15.136C215.056 13.936 216.736 13.336 218.8 13.336C220.864 13.336 222.544 13.912 223.84 15.064C225.136 16.168 225.784 17.608 225.784 19.384C225.784 21.256 225.136 22.816 223.84 24.064C222.592 25.264 220.912 25.864 218.8 25.864ZM253.272 70.576C249.144 70.576 245.472 69.712 242.256 67.984C239.088 66.256 236.568 63.904 234.696 60.928C232.872 57.904 231.96 54.472 231.96 50.632C231.96 46.744 232.872 43.312 234.696 40.336C236.568 37.312 239.088 34.96 242.256 33.28C245.472 31.552 249.144 30.688 253.272 30.688C257.352 30.688 261 31.552 264.216 33.28C267.432 34.96 269.952 37.288 271.776 40.264C273.6 43.24 274.512 46.696 274.512 50.632C274.512 54.472 273.6 57.904 271.776 60.928C269.952 63.904 267.432 66.256 264.216 67.984C261 69.712 257.352 70.576 253.272 70.576ZM253.272 61.36C255.144 61.36 256.824 60.928 258.312 60.064C259.8 59.2 260.976 57.976 261.84 56.392C262.704 54.76 263.136 52.84 263.136 50.632C263.136 48.376 262.704 46.456 261.84 44.872C260.976 43.288 259.8 42.064 258.312 41.2C256.824 40.336 255.144 39.904 253.272 39.904C251.4 39.904 249.72 40.336 248.232 41.2C246.744 42.064 245.544 43.288 244.632 44.872C243.768 46.456 243.336 48.376 243.336 50.632C243.336 52.84 243.768 54.76 244.632 56.392C245.544 57.976 246.744 59.2 248.232 60.064C249.72 60.928 251.4 61.36 253.272 61.36Z" fill="url(#paint0_linear_695_15)"/>
<defs>
<linearGradient id="paint0_linear_695_15" x1="216" y1="1.26658e-06" x2="290" y2="88" gradientUnits="userSpaceOnUse">
<stop stop-color="#09D89D"/>
<stop offset="1" stop-color="#03BBE6"/>
</linearGradient>
</defs>
</svg>
