<?xml version="1.0" encoding="UTF-8"?><svg id="Layer_1" xmlns="http://www.w3.org/2000/svg" xmlns:xlink="http://www.w3.org/1999/xlink" viewBox="0 0 32 32"><defs><style>.cls-1{fill:#03bce1;}.cls-1,.cls-2,.cls-3,.cls-4,.cls-5,.cls-6,.cls-7,.cls-8,.cls-9,.cls-10,.cls-11,.cls-12,.cls-13,.cls-14,.cls-15,.cls-16,.cls-17,.cls-18,.cls-19,.cls-20,.cls-21,.cls-22,.cls-23,.cls-24,.cls-25,.cls-26,.cls-27,.cls-28,.cls-29,.cls-30,.cls-31,.cls-32,.cls-33,.cls-34,.cls-35,.cls-36,.cls-37,.cls-38,.cls-39,.cls-40,.cls-41,.cls-42,.cls-43,.cls-44,.cls-45,.cls-46,.cls-47,.cls-48,.cls-49,.cls-50,.cls-51,.cls-52,.cls-53,.cls-54,.cls-55,.cls-56,.cls-57,.cls-58,.cls-59,.cls-60,.cls-61,.cls-62,.cls-63,.cls-64,.cls-65,.cls-66,.cls-67,.cls-68,.cls-69,.cls-70,.cls-71,.cls-72,.cls-73,.cls-74,.cls-75,.cls-76,.cls-77,.cls-78,.cls-79,.cls-80,.cls-81,.cls-82,.cls-83,.cls-84,.cls-85,.cls-86,.cls-87,.cls-88,.cls-89,.cls-90,.cls-91,.cls-92,.cls-93,.cls-94,.cls-95,.cls-96,.cls-97,.cls-98,.cls-99,.cls-100,.cls-101,.cls-102,.cls-103,.cls-104,.cls-105,.cls-106,.cls-107,.cls-108,.cls-109,.cls-110,.cls-111,.cls-112,.cls-113,.cls-114,.cls-115,.cls-116,.cls-117,.cls-118,.cls-119,.cls-120,.cls-121,.cls-122{stroke-width:0px;}.cls-2{fill:#01c99b;}.cls-3{fill:#03bce3;}.cls-4{fill:#01ca96;}.cls-5{fill:#01c99c;}.cls-6{fill:#01cd88;}.cls-7{fill:#01cb93;}.cls-8{fill:#02c5b1;}.cls-9{fill:#03bcdf;}.cls-10{fill:#03bed7;}.cls-11{fill:#02c2c3;}.cls-12{fill:#02c0ce;}.cls-13{fill:#01cc8d;}.cls-14{fill:#02c2c2;}.cls-15{fill:#02c6ab;}.cls-16{fill:#02bfcf;}.cls-17{fill:#02c5b0;}.cls-18{fill:#03bddc;}.cls-19{fill:#02c6ae;}.cls-20{fill:#01c8a0;}.cls-21{fill:#02c6af;}.cls-22{fill:#02c4b5;}.cls-23{fill:#03bed5;}.cls-24{fill:#03bfd2;}.cls-25{fill:#03bdde;}.cls-26{fill:#01cd85;}.cls-27{fill:#03bbe6;}.cls-28{fill:#03bbe4;}.cls-29{fill:#02c3bb;}.cls-30{fill:#03bddb;}.cls-31{fill:#00d174;}.cls-32{fill:#01c8a1;}.cls-33{fill:#01c89f;}.cls-34{fill:#01cd89;}.cls-35{fill:#03bdda;}.cls-36{fill:#00ce80;}.cls-37{fill:#02c4b8;}.cls-38{fill:#01ce82;}.cls-39{fill:#01cd87;}.cls-40{fill:#01c99a;}.cls-41{fill:#02c0cb;}.cls-42{fill:#02c6ad;}.cls-43{fill:#02c2c4;}.cls-44{fill:#01c7a4;}.cls-45{fill:#00d173;}.cls-46{fill:#02c5b3;}.cls-47{fill:#01ce83;}.cls-48{fill:#01c7a8;}.cls-49{fill:#01c99d;}.cls-50{fill:#00cf7b;}.cls-51{fill:#00d07a;}.cls-52{fill:#01ca98;}.cls-53{fill:none;}.cls-54{fill:#02c2bf;}.cls-55{fill:#01ca97;}.cls-56{fill:#02c3ba;}.cls-57{fill:#01cc8a;}.cls-58{fill:#01ca95;}.cls-59{fill:#01c7a7;}.cls-123{clip-path:url(#clippath-1);}.cls-60{fill:#01cc8c;}.cls-61{fill:#00d171;}.cls-62{fill:#02bfd1;}.cls-63{fill:#01cb94;}.cls-64{fill:#00d26e;}.cls-65{fill:#01c7a5;}.cls-66{fill:#00cf7f;}.cls-67{fill:#03bce2;}.cls-68{fill:#02c0cc;}.cls-69{fill:#01c8a2;}.cls-70{fill:#02c6ac;}.cls-71{fill:#00d26d;}.cls-72{fill:#02c3be;}.cls-73{fill:#02c3bd;}.cls-74{fill:#00d078;}.cls-75{fill:#02c4b6;}.cls-76{fill:#01cd86;}.cls-77{fill:#02c1c8;}.cls-78{fill:#00cf7c;}.cls-79{fill:#03bddd;}.cls-80{fill:#00d076;}.cls-81{fill:#03bdd9;}.cls-124{clip-path:url(#clippath);}.cls-82{fill:#01c8a3;}.cls-83{fill:#02c5b4;}.cls-84{fill:#02bfd0;}.cls-85{fill:#00d075;}.cls-86{fill:#01cb91;}.cls-87{fill:#01c7a6;}.cls-88{fill:#02c0ca;}.cls-89{fill:#02c0cd;}.cls-90{fill:#02c1c5;}.cls-91{fill:#02c2c1;}.cls-92{fill:#01cb92;}.cls-93{fill:#02c2c0;}.cls-94{fill:#03bce0;}.cls-95{fill:#00d077;}.cls-96{fill:#00cf7e;}.cls-97{fill:#01ca99;}.cls-98{fill:#03bbe5;}.cls-99{fill:#03bed8;}.cls-100{fill:#01cc8e;}.cls-101{fill:#02c1c6;}.cls-102{fill:#02c3bc;}.cls-103{fill:#03bed6;}.cls-104{fill:#00d172;}.cls-105{fill:#00cf7d;}.cls-106{fill:#02c1c9;}.cls-107{fill:#02c5b2;}.cls-108{fill:#02c7aa;}.cls-109{fill:#02c1c7;}.cls-110{fill:#00d079;}.cls-111{fill:#01cb90;}.cls-112{fill:#01ce81;}.cls-113{fill:#02c4b9;}.cls-114{fill:#00d26f;}.cls-115{fill:#02c4b7;}.cls-116{fill:#01ce84;}.cls-117{fill:#01c99e;}.cls-118{fill:#00d170;}.cls-119{fill:#01cc8b;}.cls-120{fill:#01cb8f;}.cls-121{fill:#03bfd3;}.cls-122{fill:#03bed4;}</style><clipPath id="clippath"><path class="cls-53" d="M14.48,15.86v7.55h-3.82v-6.96c0-2.13-.98-3.11-2.67-3.11-1.84,0-3.16,1.13-3.16,3.55v6.52H1v-13.19h3.65v1.54c1.03-1.13,2.57-1.74,4.36-1.74,3.11,0,5.47,1.81,5.47,5.83ZM22.13,10.52h3.38v2.94h-3.28v9.95h-3.82v-9.95h-2.03v-2.94h2.03v-.59c0-2.97,1.81-4.9,5.1-4.9,1.08,0,2.21.22,2.92.71l-1.01,2.77c-.42-.29-.96-.47-1.54-.47-1.13,0-1.74.61-1.74,1.91v.56ZM26.25,21.2c0-1.42,1.05-2.35,2.38-2.35s2.38.93,2.38,2.35-1.05,2.4-2.38,2.4-2.38-1-2.38-2.4Z"/></clipPath><clipPath id="clippath-1"><rect class="cls-53" x="1.11" y="25.88" width="29.78" height="1.1"/></clipPath></defs><g class="cls-124"><polygon class="cls-84" points="26.34 18.85 26.25 18.98 26.25 18.85 26.34 18.85"/><polygon class="cls-62" points="26.67 18.85 26.25 19.4 26.25 18.98 26.34 18.85 26.67 18.85"/><polygon class="cls-24" points="26.99 18.85 26.25 19.83 26.25 19.4 26.67 18.85 26.99 18.85"/><polygon class="cls-121" points="27.31 18.85 26.25 20.25 26.25 19.83 26.99 18.85 27.31 18.85"/><polygon class="cls-122" points="27.63 18.85 26.25 20.68 26.25 20.25 27.31 18.85 27.63 18.85"/><polygon class="cls-23" points="27.96 18.85 26.25 21.1 26.25 20.68 27.63 18.85 27.96 18.85"/><polygon class="cls-103" points="28.28 18.85 26.25 21.52 26.25 21.1 27.96 18.85 28.28 18.85"/><polygon class="cls-10" points="28.6 18.85 26.25 21.95 26.25 21.52 28.28 18.85 28.6 18.85"/><polygon class="cls-99" points="28.92 18.85 26.25 22.37 26.25 21.95 28.6 18.85 28.92 18.85"/><polygon class="cls-81" points="29.24 18.85 26.25 22.8 26.25 22.37 28.92 18.85 29.24 18.85"/><polygon class="cls-35" points="29.57 18.85 26.25 23.22 26.25 22.8 29.24 18.85 29.57 18.85"/><polygon class="cls-30" points="29.89 18.85 26.39 23.46 26.25 23.35 26.25 23.22 29.57 18.85 29.89 18.85"/><polygon class="cls-18" points="30.21 18.85 26.6 23.6 26.57 23.6 26.39 23.46 29.89 18.85 30.21 18.85"/><polygon class="cls-79" points="30.53 18.85 26.92 23.6 26.6 23.6 30.21 18.85 30.53 18.85"/><polygon class="cls-25" points="30.67 18.85 30.79 18.94 27.24 23.6 26.92 23.6 30.53 18.85 30.67 18.85"/><polygon class="cls-9" points="30.79 18.94 30.99 19.09 27.57 23.6 27.24 23.6 30.79 18.94"/><polygon class="cls-94" points="30.99 19.09 31 19.1 31 19.51 27.89 23.6 27.57 23.6 30.99 19.09"/><polygon class="cls-1" points="31 19.93 28.21 23.6 27.89 23.6 31 19.51 31 19.93"/><polygon class="cls-67" points="31 20.35 28.53 23.6 28.21 23.6 31 19.93 31 20.35"/><polygon class="cls-3" points="31 20.78 28.85 23.6 28.53 23.6 31 20.35 31 20.78"/><polygon class="cls-28" points="31 21.2 29.18 23.6 28.85 23.6 31 20.78 31 21.2"/><polygon class="cls-98" points="31 21.63 29.5 23.6 29.18 23.6 31 21.2 31 21.63"/><polygon class="cls-27" points="31 22.05 29.82 23.6 29.5 23.6 31 21.63 31 22.05"/><polygon class="cls-27" points="29.82 23.6 31 22.05 31 23.6 29.82 23.6"/><polygon class="cls-111" points="16.54 5.03 16.37 5.26 16.37 5.03 16.54 5.03"/><polygon class="cls-86" points="16.87 5.03 16.37 5.68 16.37 5.26 16.54 5.03 16.87 5.03"/><polygon class="cls-92" points="17.19 5.03 16.37 6.11 16.37 5.68 16.87 5.03 17.19 5.03"/><polygon class="cls-7" points="17.51 5.03 16.37 6.53 16.37 6.11 17.19 5.03 17.51 5.03"/><polygon class="cls-63" points="17.83 5.03 16.37 6.95 16.37 6.53 17.51 5.03 17.83 5.03"/><polygon class="cls-58" points="18.16 5.03 16.37 7.38 16.37 6.95 17.83 5.03 18.16 5.03"/><polygon class="cls-4" points="18.48 5.03 16.37 7.8 16.37 7.38 18.16 5.03 18.48 5.03"/><polygon class="cls-55" points="18.8 5.03 16.37 8.23 16.37 7.8 18.48 5.03 18.8 5.03"/><polygon class="cls-52" points="19.12 5.03 16.37 8.65 16.37 8.23 18.8 5.03 19.12 5.03"/><polygon class="cls-97" points="19.44 5.03 16.37 9.08 16.37 8.65 19.12 5.03 19.44 5.03"/><polygon class="cls-40" points="19.77 5.03 16.37 9.5 16.37 9.08 19.44 5.03 19.77 5.03"/><polygon class="cls-2" points="20.09 5.03 16.37 9.92 16.37 9.5 19.77 5.03 20.09 5.03"/><polygon class="cls-5" points="20.41 5.03 16.37 10.35 16.37 9.92 20.09 5.03 20.41 5.03"/><polygon class="cls-49" points="20.73 5.03 16.37 10.77 16.37 10.35 20.41 5.03 20.73 5.03"/><polygon class="cls-117" points="21.06 5.03 16.37 11.2 16.37 10.77 20.73 5.03 21.06 5.03"/><polygon class="cls-33" points="21.38 5.03 16.37 11.62 16.37 11.2 21.06 5.03 21.38 5.03"/><polygon class="cls-20" points="21.7 5.03 16.37 12.05 16.37 11.62 21.38 5.03 21.7 5.03"/><polygon class="cls-32" points="22.02 5.03 16.37 12.47 16.37 12.05 21.7 5.03 22.02 5.03"/><polygon class="cls-69" points="22.34 5.03 16.37 12.89 16.37 12.47 22.02 5.03 22.34 5.03"/><polygon class="cls-82" points="22.67 5.03 16.37 13.32 16.37 12.89 22.34 5.03 22.67 5.03"/><polygon class="cls-44" points="22.99 5.03 16.37 13.74 16.37 13.32 22.67 5.03 22.99 5.03"/><polygon class="cls-65" points="23.31 5.03 16.37 14.17 16.37 13.74 22.99 5.03 23.31 5.03"/><polygon class="cls-87" points="23.63 5.03 16.37 14.59 16.37 14.17 23.31 5.03 23.63 5.03"/><polygon class="cls-59" points="23.96 5.03 16.37 15.01 16.37 14.59 23.63 5.03 23.96 5.03"/><polygon class="cls-48" points="24.28 5.03 16.37 15.44 16.37 15.01 23.96 5.03 24.28 5.03"/><polygon class="cls-108" points="24.6 5.03 16.37 15.86 16.37 15.44 24.28 5.03 24.6 5.03"/><polygon class="cls-15" points="24.92 5.03 16.37 16.29 16.37 15.86 24.6 5.03 24.92 5.03"/><polygon class="cls-70" points="25.24 5.03 16.37 16.71 16.37 16.29 24.92 5.03 25.24 5.03"/><polygon class="cls-42" points="25.57 5.03 16.37 17.14 16.37 16.71 25.24 5.03 25.57 5.03"/><polygon class="cls-19" points="25.89 5.03 16.37 17.56 16.37 17.14 25.57 5.03 25.89 5.03"/><polygon class="cls-21" points="26.21 5.03 26.21 5.03 16.37 17.98 16.37 17.56 25.89 5.03 26.21 5.03"/><polygon class="cls-17" points="26.21 5.03 26.41 5.18 16.37 18.41 16.37 17.98 26.21 5.03"/><polygon class="cls-8" points="26.41 5.18 26.42 5.18 26.42 5.6 16.37 18.83 16.37 18.41 26.41 5.18"/><polygon class="cls-107" points="26.42 6.03 16.37 19.26 16.37 18.83 26.42 5.6 26.42 6.03"/><polygon class="cls-46" points="26.42 6.45 16.37 19.68 16.37 19.26 26.42 6.03 26.42 6.45"/><polygon class="cls-83" points="26.42 6.88 16.37 20.11 16.37 19.68 26.42 6.45 26.42 6.88"/><polygon class="cls-22" points="26.42 7.3 16.37 20.53 16.37 20.11 26.42 6.88 26.42 7.3"/><polygon class="cls-75" points="26.42 7.72 16.37 20.95 16.37 20.53 26.42 7.3 26.42 7.72"/><polygon class="cls-115" points="26.42 8.15 16.37 21.38 16.37 20.95 26.42 7.72 26.42 8.15"/><polygon class="cls-37" points="26.42 8.57 16.37 21.8 16.37 21.38 26.42 8.15 26.42 8.57"/><polygon class="cls-113" points="26.42 9 16.37 22.23 16.37 21.8 26.42 8.57 26.42 9"/><polygon class="cls-56" points="26.42 9.42 16.48 22.5 16.37 22.41 16.37 22.23 26.42 9 26.42 9.42"/><polygon class="cls-29" points="26.42 9.84 16.69 22.66 16.48 22.5 26.42 9.42 26.42 9.84"/><polygon class="cls-102" points="26.42 10.27 16.89 22.81 16.69 22.66 26.42 9.84 26.42 10.27"/><polygon class="cls-73" points="26.42 10.69 17.1 22.97 16.89 22.81 26.42 10.27 26.42 10.69"/><polygon class="cls-72" points="26.42 11.12 17.3 23.12 17.1 22.97 26.42 10.69 26.42 11.12"/><polygon class="cls-54" points="26.42 11.54 17.5 23.28 17.3 23.12 26.42 11.12 26.42 11.54"/><polygon class="cls-93" points="26.42 11.97 17.73 23.41 17.68 23.41 17.5 23.28 26.42 11.54 26.42 11.97"/><polygon class="cls-91" points="26.42 12.39 18.05 23.41 17.73 23.41 26.42 11.97 26.42 12.39"/><polygon class="cls-14" points="26.42 12.81 18.37 23.41 18.05 23.41 26.42 12.39 26.42 12.81"/><polygon class="cls-11" points="26.42 13.24 18.69 23.41 18.37 23.41 26.42 12.81 26.42 13.24"/><polygon class="cls-43" points="26.42 13.66 19.02 23.41 18.69 23.41 26.42 13.24 26.42 13.66"/><polygon class="cls-90" points="26.42 14.09 19.34 23.41 19.02 23.41 26.42 13.66 26.42 14.09"/><polygon class="cls-101" points="26.42 14.51 19.66 23.41 19.34 23.41 26.42 14.09 26.42 14.51"/><polygon class="cls-109" points="26.42 14.94 19.98 23.41 19.66 23.41 26.42 14.51 26.42 14.94"/><polygon class="cls-77" points="26.42 15.36 20.3 23.41 19.98 23.41 26.42 14.94 26.42 15.36"/><polygon class="cls-106" points="26.42 15.78 20.63 23.41 20.3 23.41 26.42 15.36 26.42 15.78"/><polygon class="cls-88" points="26.42 16.21 20.95 23.41 20.63 23.41 26.42 15.78 26.42 16.21"/><polygon class="cls-41" points="26.42 16.63 21.27 23.41 20.95 23.41 26.42 16.21 26.42 16.63"/><polygon class="cls-68" points="26.42 17.06 21.59 23.41 21.27 23.41 26.42 16.63 26.42 17.06"/><polygon class="cls-89" points="26.42 17.48 21.92 23.41 21.59 23.41 26.42 17.06 26.42 17.48"/><polygon class="cls-12" points="26.42 17.9 22.24 23.41 21.92 23.41 26.42 17.48 26.42 17.9"/><polygon class="cls-16" points="26.42 18.33 22.56 23.41 22.24 23.41 26.42 17.9 26.42 18.33"/><polygon class="cls-84" points="26.42 18.75 22.88 23.41 22.56 23.41 26.42 18.33 26.42 18.75"/><polygon class="cls-62" points="26.42 19.18 23.2 23.41 22.88 23.41 26.42 18.75 26.42 19.18"/><polygon class="cls-24" points="26.42 19.6 23.53 23.41 23.2 23.41 26.42 19.18 26.42 19.6"/><polygon class="cls-121" points="26.42 20.03 23.85 23.41 23.53 23.41 26.42 19.6 26.42 20.03"/><polygon class="cls-122" points="26.42 20.45 24.17 23.41 23.85 23.41 26.42 20.03 26.42 20.45"/><polygon class="cls-23" points="26.42 20.87 24.49 23.41 24.17 23.41 26.42 20.45 26.42 20.87"/><polygon class="cls-103" points="26.42 21.3 24.82 23.41 24.49 23.41 26.42 20.87 26.42 21.3"/><polygon class="cls-10" points="26.42 21.72 25.14 23.41 24.82 23.41 26.42 21.3 26.42 21.72"/><polygon class="cls-99" points="26.42 22.15 25.46 23.41 25.14 23.41 26.42 21.72 26.42 22.15"/><polygon class="cls-81" points="26.42 22.57 25.78 23.41 25.46 23.41 26.42 22.15 26.42 22.57"/><polygon class="cls-35" points="26.42 23 26.1 23.41 25.78 23.41 26.42 22.57 26.42 23"/><polygon class="cls-30" points="26.1 23.41 26.42 23 26.42 23.41 26.1 23.41"/><polygon class="cls-71" points="1.15 10.03 1 10.22 1 10.03 1.15 10.03"/><polygon class="cls-71" points="1.47 10.03 1 10.65 1 10.22 1.15 10.03 1.47 10.03"/><polygon class="cls-64" points="1.79 10.03 1 11.07 1 10.65 1.47 10.03 1.79 10.03"/><polygon class="cls-114" points="2.12 10.03 1 11.49 1 11.07 1.79 10.03 2.12 10.03"/><polygon class="cls-118" points="2.44 10.03 1 11.92 1 11.49 2.12 10.03 2.44 10.03"/><polygon class="cls-61" points="2.76 10.03 1 12.34 1 11.92 2.44 10.03 2.76 10.03"/><polygon class="cls-104" points="3.08 10.03 1 12.77 1 12.34 2.76 10.03 3.08 10.03"/><polygon class="cls-45" points="3.4 10.03 1 13.19 1 12.77 3.08 10.03 3.4 10.03"/><polygon class="cls-31" points="3.73 10.03 1 13.62 1 13.19 3.4 10.03 3.73 10.03"/><polygon class="cls-85" points="4.05 10.03 1 14.04 1 13.62 3.73 10.03 4.05 10.03"/><polygon class="cls-80" points="4.37 10.03 1 14.46 1 14.04 4.05 10.03 4.37 10.03"/><polygon class="cls-95" points="4.69 10.03 1 14.89 1 14.46 4.37 10.03 4.69 10.03"/><polygon class="cls-74" points="5.02 10.03 1 15.31 1 14.89 4.69 10.03 5.02 10.03"/><polygon class="cls-110" points="5.34 10.03 1 15.74 1 15.31 5.02 10.03 5.34 10.03"/><polygon class="cls-51" points="5.66 10.03 1 16.16 1 15.74 5.34 10.03 5.66 10.03"/><polygon class="cls-50" points="5.98 10.03 1 16.59 1 16.16 5.66 10.03 5.98 10.03"/><polygon class="cls-78" points="6.3 10.03 1 17.01 1 16.59 5.98 10.03 6.3 10.03"/><polygon class="cls-105" points="6.63 10.03 1 17.43 1 17.01 6.3 10.03 6.63 10.03"/><polygon class="cls-96" points="6.95 10.03 1 17.86 1 17.43 6.63 10.03 6.95 10.03"/><polygon class="cls-66" points="7.27 10.03 1 18.28 1 17.86 6.95 10.03 7.27 10.03"/><polygon class="cls-36" points="7.59 10.03 1 18.71 1 18.28 7.27 10.03 7.59 10.03"/><polygon class="cls-112" points="7.91 10.03 1 19.13 1 18.71 7.59 10.03 7.91 10.03"/><polygon class="cls-38" points="8.24 10.03 1 19.55 1 19.13 7.91 10.03 8.24 10.03"/><polygon class="cls-47" points="8.56 10.03 1 19.98 1 19.55 8.24 10.03 8.56 10.03"/><polygon class="cls-116" points="8.88 10.03 1 20.4 1 19.98 8.56 10.03 8.88 10.03"/><polygon class="cls-26" points="9.2 10.03 1 20.83 1 20.4 8.88 10.03 9.2 10.03"/><polygon class="cls-76" points="9.53 10.03 1 21.25 1 20.83 9.2 10.03 9.53 10.03"/><polygon class="cls-39" points="9.85 10.03 1 21.68 1 21.25 9.53 10.03 9.85 10.03"/><polygon class="cls-6" points="10.17 10.03 1 22.1 1 21.68 9.85 10.03 10.17 10.03"/><polygon class="cls-34" points="10.49 10.03 1 22.52 1 22.1 10.17 10.03 10.49 10.03"/><polygon class="cls-57" points="10.81 10.03 1 22.95 1 22.52 10.49 10.03 10.81 10.03"/><polygon class="cls-119" points="11.14 10.03 1 23.37 1 22.95 10.81 10.03 11.14 10.03"/><polygon class="cls-60" points="11.46 10.03 1.3 23.41 1 23.41 1 23.37 11.14 10.03 11.46 10.03"/><polygon class="cls-13" points="11.78 10.03 1.62 23.41 1.3 23.41 11.46 10.03 11.78 10.03"/><polygon class="cls-100" points="12.1 10.03 1.94 23.41 1.62 23.41 11.78 10.03 12.1 10.03"/><polygon class="cls-120" points="12.43 10.03 2.26 23.41 1.94 23.41 12.1 10.03 12.43 10.03"/><polygon class="cls-111" points="12.75 10.03 2.58 23.41 2.26 23.41 12.43 10.03 12.75 10.03"/><polygon class="cls-86" points="12.85 10.03 12.99 10.13 2.91 23.41 2.58 23.41 12.75 10.03 12.85 10.03"/><polygon class="cls-92" points="12.99 10.13 13.19 10.29 3.23 23.41 2.91 23.41 12.99 10.13"/><polygon class="cls-7" points="13.19 10.29 13.4 10.44 3.55 23.41 3.23 23.41 13.19 10.29"/><polygon class="cls-63" points="13.4 10.44 13.6 10.6 3.87 23.41 3.55 23.41 13.4 10.44"/><polygon class="cls-58" points="13.6 10.6 13.81 10.75 4.2 23.41 3.87 23.41 13.6 10.6"/><polygon class="cls-4" points="13.81 10.75 14.01 10.91 4.52 23.41 4.2 23.41 13.81 10.75"/><polygon class="cls-55" points="14.01 10.91 14.22 11.06 4.84 23.41 4.52 23.41 14.01 10.91"/><polygon class="cls-52" points="14.22 11.06 14.42 11.22 5.16 23.41 4.84 23.41 14.22 11.06"/><polygon class="cls-97" points="14.42 11.22 14.48 11.26 14.48 11.56 5.48 23.41 5.16 23.41 14.42 11.22"/><polygon class="cls-40" points="14.48 11.99 5.81 23.41 5.48 23.41 14.48 11.56 14.48 11.99"/><polygon class="cls-2" points="14.48 12.41 6.13 23.41 5.81 23.41 14.48 11.99 14.48 12.41"/><polygon class="cls-5" points="14.48 12.84 6.45 23.41 6.13 23.41 14.48 12.41 14.48 12.84"/><polygon class="cls-49" points="14.48 13.26 6.77 23.41 6.45 23.41 14.48 12.84 14.48 13.26"/><polygon class="cls-117" points="14.48 13.69 7.09 23.41 6.77 23.41 14.48 13.26 14.48 13.69"/><polygon class="cls-33" points="14.48 14.11 7.42 23.41 7.09 23.41 14.48 13.69 14.48 14.11"/><polygon class="cls-20" points="14.48 14.53 7.74 23.41 7.42 23.41 14.48 14.11 14.48 14.53"/><polygon class="cls-32" points="14.48 14.96 8.06 23.41 7.74 23.41 14.48 14.53 14.48 14.96"/><polygon class="cls-69" points="14.48 15.38 8.38 23.41 8.06 23.41 14.48 14.96 14.48 15.38"/><polygon class="cls-82" points="14.48 15.81 8.71 23.41 8.38 23.41 14.48 15.38 14.48 15.81"/><polygon class="cls-44" points="14.48 16.23 9.03 23.41 8.71 23.41 14.48 15.81 14.48 16.23"/><polygon class="cls-65" points="14.48 16.65 9.35 23.41 9.03 23.41 14.48 16.23 14.48 16.65"/><polygon class="cls-87" points="14.48 17.08 9.67 23.41 9.35 23.41 14.48 16.65 14.48 17.08"/><polygon class="cls-59" points="14.48 17.5 9.99 23.41 9.67 23.41 14.48 17.08 14.48 17.5"/><polygon class="cls-48" points="14.48 17.93 10.32 23.41 9.99 23.41 14.48 17.5 14.48 17.93"/><polygon class="cls-108" points="14.48 18.35 10.64 23.41 10.32 23.41 14.48 17.93 14.48 18.35"/><polygon class="cls-15" points="14.48 18.78 10.96 23.41 10.64 23.41 14.48 18.35 14.48 18.78"/><polygon class="cls-70" points="14.48 19.2 11.28 23.41 10.96 23.41 14.48 18.78 14.48 19.2"/><polygon class="cls-42" points="14.48 19.62 11.61 23.41 11.28 23.41 14.48 19.2 14.48 19.62"/><polygon class="cls-19" points="14.48 20.05 11.93 23.41 11.61 23.41 14.48 19.62 14.48 20.05"/><polygon class="cls-21" points="14.48 20.47 12.25 23.41 11.93 23.41 14.48 20.05 14.48 20.47"/><polygon class="cls-17" points="14.48 20.9 12.57 23.41 12.25 23.41 14.48 20.47 14.48 20.9"/><polygon class="cls-8" points="14.48 21.32 12.89 23.41 12.57 23.41 14.48 20.9 14.48 21.32"/><polygon class="cls-107" points="14.48 21.74 13.22 23.41 12.89 23.41 14.48 21.32 14.48 21.74"/><polygon class="cls-46" points="14.48 22.17 13.54 23.41 13.22 23.41 14.48 21.74 14.48 22.17"/><polygon class="cls-83" points="14.48 22.59 13.86 23.41 13.54 23.41 14.48 22.17 14.48 22.59"/><polygon class="cls-22" points="14.48 23.02 14.18 23.41 13.86 23.41 14.48 22.59 14.48 23.02"/><polygon class="cls-75" points="14.18 23.41 14.48 23.02 14.48 23.41 14.18 23.41"/></g><g class="cls-123"><rect class="cls-71" x="1.11" y="25.88" width="0" height="1.1"/><rect class="cls-71" x="1.11" y="25.88" width=".25" height="1.1"/><rect class="cls-64" x="1.36" y="25.88" width=".25" height="1.1"/><rect class="cls-114" x="1.6" y="25.88" width=".25" height="1.1"/><rect class="cls-118" x="1.85" y="25.88" width=".25" height="1.1"/><rect class="cls-61" x="2.1" y="25.88" width=".25" height="1.1"/><rect class="cls-104" x="2.34" y="25.88" width=".25" height="1.1"/><rect class="cls-45" x="2.59" y="25.88" width=".25" height="1.1"/><rect class="cls-31" x="2.83" y="25.88" width=".25" height="1.1"/><rect class="cls-85" x="3.08" y="25.88" width=".25" height="1.1"/><rect class="cls-80" x="3.33" y="25.88" width=".25" height="1.1"/><rect class="cls-95" x="3.57" y="25.88" width=".25" height="1.1"/><rect class="cls-74" x="3.82" y="25.88" width=".25" height="1.1"/><rect class="cls-110" x="4.07" y="25.88" width=".25" height="1.1"/><rect class="cls-51" x="4.31" y="25.88" width=".25" height="1.1"/><rect class="cls-50" x="4.56" y="25.88" width=".25" height="1.1"/><rect class="cls-78" x="4.8" y="25.88" width=".25" height="1.1"/><rect class="cls-105" x="5.05" y="25.88" width=".25" height="1.1"/><rect class="cls-96" x="5.3" y="25.88" width=".25" height="1.1"/><rect class="cls-66" x="5.54" y="25.88" width=".25" height="1.1"/><rect class="cls-36" x="5.79" y="25.88" width=".25" height="1.1"/><rect class="cls-112" x="6.03" y="25.88" width=".25" height="1.1"/><rect class="cls-38" x="6.28" y="25.88" width=".25" height="1.1"/><rect class="cls-47" x="6.53" y="25.88" width=".25" height="1.1"/><rect class="cls-116" x="6.77" y="25.88" width=".25" height="1.1"/><rect class="cls-26" x="7.02" y="25.88" width=".25" height="1.1"/><rect class="cls-76" x="7.26" y="25.88" width=".25" height="1.1"/><rect class="cls-39" x="7.51" y="25.88" width=".25" height="1.1"/><rect class="cls-6" x="7.76" y="25.88" width=".25" height="1.1"/><rect class="cls-34" x="8" y="25.88" width=".25" height="1.1"/><rect class="cls-57" x="8.25" y="25.88" width=".25" height="1.1"/><rect class="cls-119" x="8.49" y="25.88" width=".25" height="1.1"/><rect class="cls-60" x="8.74" y="25.88" width=".25" height="1.1"/><rect class="cls-13" x="8.99" y="25.88" width=".25" height="1.1"/><rect class="cls-100" x="9.23" y="25.88" width=".25" height="1.1"/><rect class="cls-120" x="9.48" y="25.88" width=".25" height="1.1"/><rect class="cls-111" x="9.73" y="25.88" width=".25" height="1.1"/><rect class="cls-86" x="9.97" y="25.88" width=".25" height="1.1"/><rect class="cls-92" x="10.22" y="25.88" width=".25" height="1.1"/><rect class="cls-7" x="10.46" y="25.88" width=".25" height="1.1"/><rect class="cls-63" x="10.71" y="25.88" width=".25" height="1.1"/><rect class="cls-58" x="10.96" y="25.88" width=".25" height="1.1"/><rect class="cls-4" x="11.2" y="25.88" width=".25" height="1.1"/><rect class="cls-55" x="11.45" y="25.88" width=".25" height="1.1"/><rect class="cls-52" x="11.69" y="25.88" width=".25" height="1.1"/><rect class="cls-97" x="11.94" y="25.88" width=".25" height="1.1"/><rect class="cls-40" x="12.19" y="25.88" width=".25" height="1.1"/><rect class="cls-2" x="12.43" y="25.88" width=".25" height="1.1"/><rect class="cls-5" x="12.68" y="25.88" width=".25" height="1.1"/><rect class="cls-49" x="12.92" y="25.88" width=".25" height="1.1"/><rect class="cls-117" x="13.17" y="25.88" width=".25" height="1.1"/><rect class="cls-33" x="13.42" y="25.88" width=".25" height="1.1"/><rect class="cls-20" x="13.66" y="25.88" width=".25" height="1.1"/><rect class="cls-32" x="13.91" y="25.88" width=".25" height="1.1"/><rect class="cls-69" x="14.15" y="25.88" width=".25" height="1.1"/><rect class="cls-82" x="14.4" y="25.88" width=".25" height="1.1"/><rect class="cls-44" x="14.65" y="25.88" width=".25" height="1.1"/><rect class="cls-65" x="14.89" y="25.88" width=".25" height="1.1"/><rect class="cls-87" x="15.14" y="25.88" width=".25" height="1.1"/><rect class="cls-59" x="15.38" y="25.88" width=".25" height="1.1"/><rect class="cls-48" x="15.63" y="25.88" width=".25" height="1.1"/><rect class="cls-108" x="15.88" y="25.88" width=".25" height="1.1"/><rect class="cls-15" x="16.12" y="25.88" width=".25" height="1.1"/><rect class="cls-70" x="16.37" y="25.88" width=".25" height="1.1"/><rect class="cls-42" x="16.62" y="25.88" width=".25" height="1.1"/><rect class="cls-19" x="16.86" y="25.88" width=".25" height="1.1"/><rect class="cls-21" x="17.11" y="25.88" width=".25" height="1.1"/><rect class="cls-17" x="17.35" y="25.88" width=".25" height="1.1"/><rect class="cls-8" x="17.6" y="25.88" width=".25" height="1.1"/><rect class="cls-107" x="17.85" y="25.88" width=".25" height="1.1"/><rect class="cls-46" x="18.09" y="25.88" width=".25" height="1.1"/><rect class="cls-83" x="18.34" y="25.88" width=".25" height="1.1"/><rect class="cls-22" x="18.58" y="25.88" width=".25" height="1.1"/><rect class="cls-75" x="18.83" y="25.88" width=".25" height="1.1"/><rect class="cls-115" x="19.08" y="25.88" width=".25" height="1.1"/><rect class="cls-37" x="19.32" y="25.88" width=".25" height="1.1"/><rect class="cls-113" x="19.57" y="25.88" width=".25" height="1.1"/><rect class="cls-56" x="19.81" y="25.88" width=".25" height="1.1"/><rect class="cls-29" x="20.06" y="25.88" width=".25" height="1.1"/><rect class="cls-102" x="20.31" y="25.88" width=".25" height="1.1"/><rect class="cls-73" x="20.55" y="25.88" width=".25" height="1.1"/><rect class="cls-72" x="20.8" y="25.88" width=".25" height="1.1"/><rect class="cls-54" x="21.04" y="25.88" width=".25" height="1.1"/><rect class="cls-93" x="21.29" y="25.88" width=".25" height="1.1"/><rect class="cls-91" x="21.54" y="25.88" width=".25" height="1.1"/><rect class="cls-14" x="21.78" y="25.88" width=".25" height="1.1"/><rect class="cls-11" x="22.03" y="25.88" width=".25" height="1.1"/><rect class="cls-43" x="22.28" y="25.88" width=".25" height="1.1"/><rect class="cls-90" x="22.52" y="25.88" width=".25" height="1.1"/><rect class="cls-101" x="22.77" y="25.88" width=".25" height="1.1"/><rect class="cls-109" x="23.01" y="25.88" width=".25" height="1.1"/><rect class="cls-77" x="23.26" y="25.88" width=".25" height="1.1"/><rect class="cls-106" x="23.51" y="25.88" width=".25" height="1.1"/><rect class="cls-88" x="23.75" y="25.88" width=".25" height="1.1"/><rect class="cls-41" x="24" y="25.88" width=".25" height="1.1"/><rect class="cls-68" x="24.24" y="25.88" width=".25" height="1.1"/><rect class="cls-89" x="24.49" y="25.88" width=".25" height="1.1"/><rect class="cls-12" x="24.74" y="25.88" width=".25" height="1.1"/><rect class="cls-16" x="24.98" y="25.88" width=".25" height="1.1"/><rect class="cls-84" x="25.23" y="25.88" width=".25" height="1.1"/><rect class="cls-62" x="25.47" y="25.88" width=".25" height="1.1"/><rect class="cls-24" x="25.72" y="25.88" width=".25" height="1.1"/><rect class="cls-121" x="25.97" y="25.88" width=".25" height="1.1"/><rect class="cls-122" x="26.21" y="25.88" width=".25" height="1.1"/><rect class="cls-23" x="26.46" y="25.88" width=".25" height="1.1"/><rect class="cls-103" x="26.7" y="25.88" width=".25" height="1.1"/><rect class="cls-10" x="26.95" y="25.88" width=".25" height="1.1"/><rect class="cls-99" x="27.2" y="25.88" width=".25" height="1.1"/><rect class="cls-81" x="27.44" y="25.88" width=".25" height="1.1"/><rect class="cls-35" x="27.69" y="25.88" width=".25" height="1.1"/><rect class="cls-30" x="27.93" y="25.88" width=".25" height="1.1"/><rect class="cls-18" x="28.18" y="25.88" width=".25" height="1.1"/><rect class="cls-79" x="28.43" y="25.88" width=".25" height="1.1"/><rect class="cls-25" x="28.67" y="25.88" width=".25" height="1.1"/><rect class="cls-9" x="28.92" y="25.88" width=".25" height="1.1"/><rect class="cls-94" x="29.17" y="25.88" width=".25" height="1.1"/><rect class="cls-1" x="29.41" y="25.88" width=".25" height="1.1"/><rect class="cls-67" x="29.66" y="25.88" width=".25" height="1.1"/><rect class="cls-3" x="29.9" y="25.88" width=".25" height="1.1"/><rect class="cls-28" x="30.15" y="25.88" width=".25" height="1.1"/><rect class="cls-98" x="30.4" y="25.88" width=".25" height="1.1"/><rect class="cls-27" x="30.64" y="25.88" width=".25" height="1.1"/></g></svg>